# AST/ASF file generated using VICON BodyLanguage
# -----------------------------------------------
:version 1.10
:name VICON
:units
  mass 1.0
  length 0.45
  angle deg
:documentation
   .ast/.asf automatically generated from VICON data using
   VICON BodyBuilder and BodyLanguage model FoxedUp or BRILLIANT.MOD
:root
   order TX TY TZ RX RY RZ
   axis XYZ
   position 0 0 0  
   orientation 0 0 0 
:bonedata
  begin
     id 1 
     name lhipjoint
     direction 0.606768 -0.715223 0.346827 
     length 2.41543 
     axis 0 0 0  XYZ
  end
  begin
     id 2 
     name lfemur
     direction 0.34202 -0.939693 0  
     length 7.2778  
     axis 0 0 20  XYZ
    dof rx ry rz
    limits (-160.0 20.0)
           (-70.0 70.0)
           (-60.0 70.0)
  end
  begin
     id 3 
     name ltibia
     direction 0.34202 -0.939693 0   
     length 7.61811   
     axis 0 0 20   XYZ
    dof rx
    limits (-10.0 170.0)
  end
  begin
     id 4 
     name lfoot
     direction 0.0823924 -0.226371 0.97055   
     length 2.33618   
     axis -90 7.62852e-016 20   XYZ
    dof rx rz
    limits (-45.0 90.0)
           (-70.0 20.0)
  end
  begin
     id 5 
     name ltoes
     direction 1.53554e-011 -4.21934e-011 1   
     length 1.17015   
     axis -90 7.62852e-016 20   XYZ
    dof rx
    limits (-90.0 20.0)
  end
  begin
     id 6 
     name rhipjoint
     direction -0.6077 -0.714582 0.346516   
     length 2.4176  
     axis 0 0 0  XYZ 
  end
  begin
     id 7 
     name rfemur
     direction -0.34202 -0.939693 0   
     length 7.28127   
     axis 0 0 -20   XYZ
    dof rx ry rz
    limits (-160.0 20.0)
           (-70.0 70.0)
           (-70.0 60.0)
  end
  begin
     id 8 
     name rtibia
     direction -0.34202 -0.939693 0   
     length 7.77648   
     axis 0 0 -20   XYZ
    dof rx
    limits (-10.0 170.0)
 end
 begin
     id 9 
     name rfoot
     direction -0.0809463 -0.222398 0.97159   
     length 2.37533  
     axis -90 -7.62852e-016 -20   XYZ
    dof rx rz
    limits (-45.0 90.0)
           (-20.0 70.0)
  end
  begin
     id 10 
     name rtoes
     direction -1.53568e-011 -4.21714e-011 1   
     length 1.18972   
     axis -90 -7.62852e-016 -20   XYZ
    dof rx
    limits (-90.0 20.0)
  end
  begin
     id 11 
     name lowerback
     direction 0.010968 0.991932 -0.126297   
     length 2.21698   
     axis 0 0 0   XYZ
    dof rx ry rz
    limits (-20.0 45.0)
           (-30.0 30.0)
           (-30.0 30.0)
  end
  begin
     id 12 
     name upperback
     direction 0.0167007 0.997503 -0.0686276   
     length 2.22371   
     axis 0 0 0   XYZ
    dof rx ry rz
    limits (-20.0 45.0)
           (-30.0 30.0)
           (-30.0 30.0)
  end
  begin
     id 13 
     name thorax
     direction 0.0111721 0.999885 -0.0102878   
     length 2.25242   
     axis 0 0 0   XYZ
    dof rx ry rz
    limits (-20.0 45.0)
           (-30.0 30.0)
           (-30.0 30.0)
  end
  begin
     id 14 
     name lowerneck
     direction -0.0120265 0.990428 0.137508   
     length 1.57674   
     axis 0 0 0   XYZ
    dof rx ry rz
    limits (-20.0 45.0)
           (-30.0 30.0)
           (-30.0 30.0)
  end
  begin
     id 15 
     name upperneck
     direction 0.0175669 0.998907 0.0433089   
     length 1.5618   
     axis 0 0 0   XYZ
    dof rx ry rz
    limits (-20.0 45.0)
           (-30.0 30.0)
           (-30.0 30.0)
  end
  begin
     id 16
     name head
     direction 0.00754609 0.99997 0.00185367  
     length 1.60579  
     axis 0 0 0   XYZ
    dof rx ry rz
    limits (-20.0 45.0)
           (-30.0 30.0)
           (-30.0 30.0)
  end
  begin
     id 17 
     name lclavicle
     direction 0.885866 0.429166 -0.176231  
     length 3.44967  
     axis 0 0 0   XYZ
    dof ry rz
    limits (-20.0 10.0)
           (0.0 20.0)
  end
  begin
     id 18 
     name lhumerus
     direction 1 -4.48973e-011 -1.90255e-027   
     length 5.20607   
     axis 180 -30 -90   XYZ
    dof rx ry rz
    limits (-60.0 90.0)
           (-90.0 90.0)
           (-90.0 90.0)
  end
  begin
     id 19
     name lradius
     direction 1 -4.48956e-011 9.87925e-027   
     length 3.39961   
     axis 180 -30 -90   XYZ
    dof rx
    limits (-10.0 170.0)
  end
  begin
     id 20
     name lwrist
     direction 1 -4.48985e-011 1.73247e-026   
     length 1.6998   
     axis -9.60847e-015 90 90   XYZ
    dof ry
    limits (-180.0 0.0)
 end
  begin
     id 21 
     name lhand
     direction 1 -4.48798e-011 3.46119e-026   
     length 0.519693   
     axis -2.21073e-014 90 90   XYZ
    dof rx rz
    limits (-90.0 90.0)
           (-45.0 45.0)
  end
  begin
     id 22 
     name lfingers
     direction 1 -4.48938e-011 6.92797e-026   
     length 0.41899   
     axis -4.42155e-014 90 90   XYZ
    dof rx
    limits (0.0 90.0)
  end
  begin
     id 23
     name lthumb
     direction 0.707107 -6.34952e-011 0.707107   
     length 0.601588   
     axis -90 45 6.0103e-014   XYZ
    dof rx rz
    limits (-45.0 45.0)
           (-45.0 45.0)
  end
  begin
     id 24 
     name rclavicle
     direction -0.866736 0.456792 -0.200276   
     length 3.45032  
     axis 0 0 0   XYZ 
    dof ry rz
    limits (-10.0 20.0)
           (-20.0 0.0)
  end
  begin
     id 25 
     name rhumerus
     direction -1 -4.4897e-011 8.65094e-028  
     length 5.32214   
     axis 180 30 90   XYZ
    dof rx ry rz
    limits (-90.0 60.0)
           (-90.0 90.0)
           (-90.0 90.0)
  end
  begin
     id 26 
     name rradius
     direction -1 -4.48987e-011 1.08427e-026   
     length 3.51208   
     axis 180 30 90   XYZ
    dof rx
    limits (-10.0 170.0)
  end
  begin
     id 27 
     name rwrist
     direction -1 -4.48961e-011 1.73222e-026   
     length 1.75604   
     axis -9.60847e-015 -90 -90   XYZ
    dof ry
    limits (-180.0 0.0)
  end
  begin
     id 28
     name rhand
     direction -1 -4.48895e-011 3.46314e-026   
     length 0.586681   
     axis -2.21073e-014 -90 -90   XYZ
    dof rx rz
    limits (-90.0 90.0)
           (-45.0 45.0)
  end
  begin
     id 29
     name rfingers
     direction -1 -4.48968e-011 6.92916e-026   
     length 0.472997   
     axis -4.42155e-014 -90 -90   XYZ
    dof rx
    limits (0.0 90.0)
  end
  begin
     id 30
     name rthumb
     direction -0.707107 -6.34848e-011 0.707107   
     length 0.679133   
     axis -90 -45 -6.0103e-014   XYZ
    dof rx rz
    limits (-45.0 45.0)
           (-45.0 45.0)
  end
:hierarchy
  begin
    root lhipjoint rhipjoint lowerback
    lhipjoint lfemur
    lfemur ltibia
    ltibia lfoot
    lfoot ltoes
    rhipjoint rfemur
    rfemur rtibia
    rtibia rfoot
    rfoot rtoes
    lowerback upperback
    upperback thorax
    thorax lowerneck lclavicle rclavicle
    lowerneck upperneck
    upperneck head
    lclavicle lhumerus
    lhumerus lradius
    lradius lwrist
    lwrist lhand lthumb
    lhand lfingers
    rclavicle rhumerus
    rhumerus rradius
    rradius rwrist
    rwrist rhand rthumb
    rhand rfingers
  end

#!OML:ASF H:\Dans Jumps\Project 1\Capture day 1\Session 1\subject.ASF
:FULLY-SPECIFIED
:DEGREES
23
root 0.571097 17.6543 -14.0575 6.62986 -0.906528 -1.04743
lowerback -4.7738 -0.294214 -0.124599
upperback 3.21022 -0.459797 1.35205
thorax 6.02798 -0.263413 1.4312
lowerneck -12.4605 0.504304 -1.99577
upperneck 36.2687 1.10889 0.552948
head 14.5631 0.272398 0.755792
rclavicle 7.10655e-015 -2.5842e-015
rhumerus -22.5038 -10.8803 -83.9821
rradius 23.7351
rwrist 33.5701
rhand -19.755 -26.6437
rfingers 7.12502
rthumb 6.5763 -56.5216
lclavicle 7.10655e-015 -2.5842e-015
lhumerus -20.4846 -6.31097 90.182
lradius 17.8635
lwrist 0.0964891
lhand -24.8716 -3.94124
lfingers 7.12502
lthumb 1.63557 26.0322
rfemur -11.5082 -3.1527 19.0302
rtibia 18.0409
rfoot -12.1547 -2.74732
rtoes 12.4582
lfemur -8.33292 5.99477 -17.7548
ltibia 13.4309
lfoot -9.08639 6.22484
ltoes 1.12136
24
root 0.570122 17.6541 -14.0578 6.62481 -0.883985 -1.05745
lowerback -4.77808 -0.297296 -0.111395
upperback 3.2125 -0.464773 1.34885
thorax 6.03283 -0.265271 1.41995
lowerneck -12.4693 0.49986 -1.99726
upperneck 36.2589 1.1023 0.554873
head 14.5606 0.269744 0.755796
rclavicle -2.28602e-015 1.23246e-014
rhumerus -22.518 -10.8945 -83.9894
rradius 23.7364
rwrist 33.5647
rhand -19.7187 -26.6421
rfingers 7.12502
rthumb 6.61135 -56.5189
lclavicle -2.28602e-015 1.23246e-014
lhumerus -20.4969 -6.68723 90.3593
lradius 18.0684
lwrist 0.422447
lhand -24.8606 -3.93803
lfingers 7.12502
lthumb 1.64625 26.0354
rfemur -11.4933 -3.15676 19.0457
rtibia 18.0266
rfoot -12.15 -2.76648
rtoes 12.4555
lfemur -8.34426 5.98403 -17.7385
ltibia 13.4545
lfoot -9.09568 6.21679
ltoes 1.11457
25
root 0.569111 17.654 -14.0581 6.61976 -0.86057 -1.0658
lowerback -4.78104 -0.300833 -0.100483
upperback 3.21295 -0.470131 1.34516
thorax 6.03501 -0.267384 1.40943
lowerneck -12.4733 0.495565 -1.99941
upperneck 36.2473 1.09529 0.558625
head 14.5562 0.267097 0.756553
rclavicle 1.2424e-015 -5.76476e-015
rhumerus -22.5368 -10.9004 -83.9994
rradius 23.7445
rwrist 33.5495
rhand -19.6745 -26.6349
rfingers 7.12502
rthumb 6.65402 -56.5104
lclavicle 1.2424e-015 -5.76476e-015
lhumerus -20.5039 -7.02702 90.5243
lradius 18.267
lwrist 0.72228
lhand -24.8572 -3.93647
lfingers 7.12502
lthumb 1.64945 26.0369
rfemur -11.4791 -3.16069 19.0595
rtibia 18.0142
rfoot -12.1474 -2.78628
rtoes 12.4595
lfemur -8.35348 5.97138 -17.7237
ltibia 13.4741
lfoot -9.1027 6.20895
ltoes 1.11562
26
root 0.568059 17.6539 -14.0584 6.61553 -0.835785 -1.07118
lowerback -4.78335 -0.305404 -0.093785
upperback 3.21145 -0.476521 1.3413
thorax 6.03481 -0.270163 1.401
lowerneck -12.4763 0.492029 -2.00274
upperneck 36.2372 1.08894 0.564553
head 14.5521 0.264845 0.758521
rclavicle 4.67144e-015 6.55989e-015
rhumerus -22.5606 -10.8954 -84.0116
rradius 23.7615
rwrist 33.5323
rhand -19.6191 -26.6166
rfingers 7.12502
rthumb 6.70754 -56.4904
lclavicle 4.67144e-015 6.55989e-015
lhumerus -20.5027 -7.3229 90.6753
lradius 18.4547
lwrist 0.984264
lhand -24.8559 -3.94988
lfingers 7.12502
lthumb 1.65075 26.0235
rfemur -11.4669 -3.1646 19.0703
rtibia 18.0049
rfoot -12.1472 -2.80825
rtoes 12.4601
lfemur -8.3612 5.95782 -17.712
ltibia 13.4883
lfoot -9.10664 6.19977
ltoes 1.12136
27
root 0.566986 17.6539 -14.0587 6.61264 -0.808928 -1.07314
lowerback -4.78632 -0.310986 -0.0903383
upperback 3.20774 -0.483944 1.33647
thorax 6.03271 -0.27355 1.39328
lowerneck -12.4714 0.488626 -2.0072
upperneck 36.2241 1.08217 0.572335
head 14.5449 0.262562 0.761308
rclavicle -4.37326e-015 6.55989e-015
rhumerus -22.5871 -10.8826 -84.0265
rradius 23.7822
rwrist 33.5155
rhand -19.5527 -26.5986
rfingers 7.12502
rthumb 6.77165 -56.4703
lclavicle -4.37326e-015 6.55989e-015
lhumerus -20.4978 -7.58819 90.8149
lradius 18.6368
lwrist 1.22553
lhand -24.852 -3.9504
lfingers 7.12502
lthumb 1.65449 26.0229
rfemur -11.4572 -3.16957 19.0776
rtibia 17.9984
rfoot -12.1485 -2.83135
rtoes 12.4523
lfemur -8.36956 5.94664 -17.7043
ltibia 13.4987
lfoot -9.10711 6.18524
ltoes 1.12342
28
root 0.565911 17.6539 -14.0591 6.61133 -0.781478 -1.07493
lowerback -4.79196 -0.316783 -0.0877261
upperback 3.20393 -0.491652 1.33235
thorax 6.03206 -0.277133 1.38673
lowerneck -12.4665 0.485454 -2.0113
upperneck 36.2112 1.0759 0.579439
head 14.5377 0.260449 0.763831
rclavicle -1.39149e-015 6.16232e-015
rhumerus -22.612 -10.8599 -84.0432
rradius 23.8049
rwrist 33.4995
rhand -19.4839 -26.5714
rfingers 7.12502
rthumb 6.838 -56.441
lclavicle -1.39149e-015 6.16232e-015
lhumerus -20.4846 -7.82881 90.9451
lradius 18.8111
lwrist 1.45337
lhand -24.8615 -3.96646
lfingers 7.12502
lthumb 1.64534 26.0069
rfemur -11.4507 -3.17211 19.0845
rtibia 17.9943
rfoot -12.1516 -2.85694
rtoes 12.4436
lfemur -8.3784 5.93535 -17.6969
ltibia 13.506
lfoot -9.10558 6.16953
ltoes 1.12863
